<svg width="437px" height="124.439990234375px" xmlns="http://www.w3.org/2000/svg" viewBox="31.5 12.780004882812499 437 124.439990234375" style="background: rgba(0, 0, 0, 0) none repeat scroll 0% 0%;" preserveAspectRatio="xMidYMid"><defs><filter id="editing-vr"><feFlood flood-color="#f00" flood-opacity="0.7" result="c1"></feFlood><feFlood flood-color="#00f" flood-opacity="0.7" result="c3"></feFlood><feComposite operator="in" in="c1" in2="SourceAlpha" result="text-c1"></feComposite><feComposite operator="in" in="c3" in2="SourceAlpha" result="text-c3"></feComposite><feOffset in="text-c1" dx="5" dy="-1" result="text1"></feOffset><feOffset in="text-c3" dx="-5" dy="1" result="text3"></feOffset><feBlend in="SourceGraphic" in2="text1" mode="multiply" result="text4"></feBlend><feBlend in="text4" in2="text3" mode="multiply"></feBlend></filter></defs><g filter="url(#editing-vr)"><g transform="translate(97.9700186252594, 97.30500030517578)"><path d="M14.14 0L0.51 0L7.81-38.91L8.51-42.24L22.21-42.24L14.14 0ZM40.13-3.78L40.13-3.78L40.13-3.78Q38.40 1.28 31.74 1.28L31.74 1.28L31.74 1.28Q26.82 1.28 23.42-4.61L23.42-4.61L23.42-4.61Q19.97-10.50 19.33-20.10L19.33-20.10L19.33-20.10Q26.37-32.96 31.23-38.27L31.23-38.27L31.23-38.27Q35.90-43.33 40.77-43.33L40.77-43.33L40.77-43.33Q43.39-43.33 45.28-41.92L45.28-41.92L45.28-41.92Q47.17-40.51 47.62-38.27L47.62-38.27L47.62-38.27Q45.44-37.38 44.42-36.67L44.42-36.67L44.42-36.67Q41.86-34.75 38.40-30.46L38.40-30.46L32.58-23.49L32.58-23.49Q31.17-21.82 30.59-21.06L30.59-21.06L30.59-21.06Q31.55-15.68 34.43-10.37L34.43-10.37L34.43-10.37Q37.18-5.31 40.13-3.78ZM46.56-1.92L46.56-1.92L46.56-1.92Q45.06-3.58 44.38-6.21L44.38-6.21L44.38-6.21Q43.71-8.83 43.71-13.12L43.71-13.12L43.71-13.12Q43.71-17.41 45.18-21.31L45.18-21.31L45.18-21.31Q46.66-25.22 49.34-28.03L49.34-28.03L49.34-28.03Q54.85-33.92 63.94-33.92L63.94-33.92L63.94-33.92Q67.20-33.92 69.57-32.83L69.57-32.83L80.51-33.92L75.78-8.96L75.78-8.96Q75.58-8.19 75.58-6.78L75.58-6.78L75.58-6.78Q75.58-5.38 76.45-4.48L76.45-4.48L76.45-4.48Q77.31-3.58 78.59-3.46L78.59-3.46L78.59-3.46Q77.95-1.28 75.62 0L75.62 0L75.62 0Q73.28 1.28 70.66 1.28L70.66 1.28L70.66 1.28Q68.03 1.28 66.27 0.29L66.27 0.29L66.27 0.29Q64.51-0.70 64-2.37L64-2.37L64-2.37Q62.98-0.77 60.80 0.26L60.80 0.26L60.80 0.26Q58.62 1.28 55.71 1.28L55.71 1.28L55.71 1.28Q52.80 1.28 50.43 0.51L50.43 0.51L50.43 0.51Q48.06-0.26 46.56-1.92ZM60.06-27.90L60.06-27.90L60.06-27.90Q59.33-26.75 58.69-24.80L58.69-24.80L58.69-24.80Q58.05-22.85 56.99-17.63L56.99-17.63L56.99-17.63Q55.94-12.42 55.94-8.70L55.94-8.70L55.94-8.70Q55.94-4.99 56.51-3.90L56.51-3.90L56.51-3.90Q57.09-2.82 58.11-2.82L58.11-2.82L58.11-2.82Q60.16-2.82 61.66-4.77L61.66-4.77L61.66-4.77Q63.17-6.72 63.74-10.18L63.74-10.18L67.14-28.93L67.14-28.93Q65.79-30.08 64.22-30.08L64.22-30.08L64.22-30.08Q62.66-30.08 61.73-29.57L61.73-29.57L61.73-29.57Q60.80-29.06 60.06-27.90ZM107.20-31.55L107.20-31.55L107.20-31.55Q109.31-33.92 112.96-33.92L112.96-33.92L112.96-33.92Q115.20-33.92 116.93-32.70L116.93-32.70L116.93-32.70Q118.66-31.49 118.66-29.22L118.66-29.22L118.66-29.22Q118.66-26.94 117.95-24.51L117.95-24.51L117.95-24.51Q117.25-22.08 116.16-19.58L116.16-19.58L116.16-19.58Q113.98-14.72 110.98-10.69L110.98-10.69L110.98-10.69Q106.75-4.86 102.69-1.79L102.69-1.79L102.69-1.79Q98.62 1.28 94.21 1.28L94.21 1.28L94.21 1.28Q90.62 1.28 88.45 0.45L88.45 0.45L88.45 0.45Q88.06-12.99 87.58-17.79L87.58-17.79L87.58-17.79Q87.10-22.59 86.72-25.22L86.72-25.22L86.72-25.22Q86.08-30.34 84.16-31.55L84.16-31.55L84.16-31.55Q85.63-32.83 87.07-33.38L87.07-33.38L87.07-33.38Q88.51-33.92 91.49-33.92L91.49-33.92L91.49-33.92Q94.46-33.92 96.58-31.58L96.58-31.58L96.58-31.58Q98.69-29.25 99.10-25.12L99.10-25.12L99.10-25.12Q99.52-20.99 99.52-16L99.52-16L99.52-16Q99.52-11.01 99.14-4.99L99.14-4.99L99.14-4.99Q101.12-6.40 103.23-10.69L103.23-10.69L103.23-10.69Q106.11-16.64 107.14-23.81L107.14-23.81L107.14-23.81Q107.46-25.98 107.46-28.29L107.46-28.29L107.46-28.29Q107.46-30.59 107.20-31.55ZM123.17-1.92L123.17-1.92L123.17-1.92Q121.66-3.58 120.99-6.21L120.99-6.21L120.99-6.21Q120.32-8.83 120.32-13.12L120.32-13.12L120.32-13.12Q120.32-17.41 121.79-21.31L121.79-21.31L121.79-21.31Q123.26-25.22 125.95-28.03L125.95-28.03L125.95-28.03Q131.46-33.92 140.54-33.92L140.54-33.92L140.54-33.92Q143.81-33.92 146.18-32.83L146.18-32.83L157.12-33.92L152.38-8.96L152.38-8.96Q152.19-8.19 152.19-6.78L152.19-6.78L152.19-6.78Q152.19-5.38 153.06-4.48L153.06-4.48L153.06-4.48Q153.92-3.58 155.20-3.46L155.20-3.46L155.20-3.46Q154.56-1.28 152.22 0L152.22 0L152.22 0Q149.89 1.28 147.26 1.28L147.26 1.28L147.26 1.28Q144.64 1.28 142.88 0.29L142.88 0.29L142.88 0.29Q141.12-0.70 140.61-2.37L140.61-2.37L140.61-2.37Q139.58-0.77 137.41 0.26L137.41 0.26L137.41 0.26Q135.23 1.28 132.32 1.28L132.32 1.28L132.32 1.28Q129.41 1.28 127.04 0.51L127.04 0.51L127.04 0.51Q124.67-0.26 123.17-1.92ZM136.67-27.90L136.67-27.90L136.67-27.90Q135.94-26.75 135.30-24.80L135.30-24.80L135.30-24.80Q134.66-22.85 133.60-17.63L133.60-17.63L133.60-17.63Q132.54-12.42 132.54-8.70L132.54-8.70L132.54-8.70Q132.54-4.99 133.12-3.90L133.12-3.90L133.12-3.90Q133.70-2.82 134.72-2.82L134.72-2.82L134.72-2.82Q136.77-2.82 138.27-4.77L138.27-4.77L138.27-4.77Q139.78-6.72 140.35-10.18L140.35-10.18L143.74-28.93L143.74-28.93Q142.40-30.08 140.83-30.08L140.83-30.08L140.83-30.08Q139.26-30.08 138.34-29.57L138.34-29.57L138.34-29.57Q137.41-29.06 136.67-27.90ZM189.70-33.92L189.70-33.92L189.70-33.92Q184.51-33.92 180.74-35.65L180.74-35.65L178.69-25.28L191.04-25.28L191.04-25.28Q191.04-21.89 189.34-19.74L189.34-19.74L189.34-19.74Q187.65-17.60 184.58-17.60L184.58-17.60L184.58-17.60Q181.25-17.60 178.18-18.82L178.18-18.82L178.18-18.82Q177.54-19.07 177.47-19.14L177.47-19.14L173.82 0L159.87 0L168-42.24L196.54-42.24L196.54-42.24Q196.54-38.34 194.72-36.13L194.72-36.13L194.72-36.13Q192.90-33.92 189.70-33.92ZM197.28-1.92L197.28-1.92L197.28-1.92Q195.78-3.58 195.10-6.21L195.10-6.21L195.10-6.21Q194.43-8.83 194.43-13.12L194.43-13.12L194.43-13.12Q194.43-17.41 195.90-21.31L195.90-21.31L195.90-21.31Q197.38-25.22 200.06-28.03L200.06-28.03L200.06-28.03Q205.57-33.92 214.66-33.92L214.66-33.92L214.66-33.92Q217.92-33.92 220.29-32.83L220.29-32.83L231.23-33.92L226.50-8.96L226.50-8.96Q226.30-8.19 226.30-6.78L226.30-6.78L226.30-6.78Q226.30-5.38 227.17-4.48L227.17-4.48L227.17-4.48Q228.03-3.58 229.31-3.46L229.31-3.46L229.31-3.46Q228.67-1.28 226.34 0L226.34 0L226.34 0Q224 1.28 221.38 1.28L221.38 1.28L221.38 1.28Q218.75 1.28 216.99 0.29L216.99 0.29L216.99 0.29Q215.23-0.70 214.72-2.37L214.72-2.37L214.72-2.37Q213.70-0.77 211.52 0.26L211.52 0.26L211.52 0.26Q209.34 1.28 206.43 1.28L206.43 1.28L206.43 1.28Q203.52 1.28 201.15 0.51L201.15 0.51L201.15 0.51Q198.78-0.26 197.28-1.92ZM210.78-27.90L210.78-27.90L210.78-27.90Q210.05-26.75 209.41-24.80L209.41-24.80L209.41-24.80Q208.77-22.85 207.71-17.63L207.71-17.63L207.71-17.63Q206.66-12.42 206.66-8.70L206.66-8.70L206.66-8.70Q206.66-4.99 207.23-3.90L207.23-3.90L207.23-3.90Q207.81-2.82 208.83-2.82L208.83-2.82L208.83-2.82Q210.88-2.82 212.38-4.77L212.38-4.77L212.38-4.77Q213.89-6.72 214.46-10.18L214.46-10.18L217.86-28.93L217.86-28.93Q216.51-30.08 214.94-30.08L214.94-30.08L214.94-30.08Q213.38-30.08 212.45-29.57L212.45-29.57L212.45-29.57Q211.52-29.06 210.78-27.90ZM261.76 1.28L261.76 1.28L261.76 1.28Q254.02 1.28 254.02-4.74L254.02-4.74L254.02-4.74Q254.08-6.40 254.59-9.22L254.59-9.22L255.74-15.10L255.74-15.10Q257.47-23.42 257.47-25.28L257.47-25.28L257.47-25.28Q257.47-28.99 255.30-28.99L255.30-28.99L255.30-28.99Q251.65-28.99 249.73-19.46L249.73-19.46L245.95 0L233.09 1.28L239.74-32.70L250.24-33.92L249.22-27.65L249.22-27.65Q252.22-33.92 261.44-33.92L261.44-33.92L261.44-33.92Q265.92-33.92 267.81-32.03L267.81-32.03L267.81-32.03Q269.70-30.14 269.70-25.92L269.70-25.92L269.70-25.92Q269.70-21.95 267.65-12.67L267.65-12.67L267.65-12.67Q266.69-8.51 266.69-6.94L266.69-6.94L266.69-6.94Q266.69-5.38 267.55-4.48L267.55-4.48L267.55-4.48Q268.42-3.58 269.70-3.46L269.70-3.46L269.70-3.46Q269.06-1.28 266.85 0L266.85 0L266.85 0Q264.64 1.28 261.76 1.28ZM293.95-22.46L293.95-22.46L293.95-22.46Q294.85-24.83 294.85-26.88L294.85-26.88L294.85-26.88Q294.85-30.66 291.78-30.66L291.78-30.66L291.78-30.66Q290.18-30.66 288.86-29.22L288.86-29.22L288.86-29.22Q287.55-27.78 287.55-25.98L287.55-25.98L287.55-25.98Q287.55-24.70 288.58-23.68L288.58-23.68L288.58-23.68Q290.05-22.27 293.82-19.97L293.82-19.97L293.82-19.97Q297.60-17.66 299.04-15.78L299.04-15.78L299.04-15.78Q300.48-13.89 300.48-11.30L300.48-11.30L300.48-11.30Q300.48-8.70 299.23-6.34L299.23-6.34L299.23-6.34Q297.98-3.97 295.74-2.30L295.74-2.30L295.74-2.30Q290.94 1.28 283.26 1.28L283.26 1.28L283.26 1.28Q279.10 1.28 275.90-0.90L275.90-0.90L275.90-0.90Q272.70-3.01 272.70-5.50L272.70-5.50L272.70-5.50Q272.70-8 274.53-9.47L274.53-9.47L274.53-9.47Q276.35-10.94 279.04-10.94L279.04-10.94L279.04-10.94Q281.73-10.94 283.39-9.92L283.39-9.92L283.39-9.92Q282.56-7.81 282.56-6.40L282.56-6.40L282.56-6.40Q282.56-2.18 286.14-2.18L286.14-2.18L286.14-2.18Q287.68-2.18 288.70-3.14L288.70-3.14L288.70-3.14Q289.73-4.10 289.73-5.76L289.73-5.76L289.73-5.76Q289.73-9.02 284.22-12.48L284.22-12.48L284.22-12.48Q279.74-15.42 278.72-16.58L278.72-16.58L278.72-16.58Q276.99-18.62 276.99-21.18L276.99-21.18L276.99-21.18Q276.99-23.74 278.21-26.18L278.21-26.18L278.21-26.18Q279.42-28.61 281.66-30.34L281.66-30.34L281.66-30.34Q286.34-33.92 294.46-33.92L294.46-33.92L294.46-33.92Q298.62-33.92 301.09-32.26L301.09-32.26L301.09-32.26Q303.55-30.59 303.55-27.78L303.55-27.78L303.55-27.78Q303.55-24.96 301.86-23.36L301.86-23.36L301.86-23.36Q300.16-21.76 297.09-21.76L297.09-21.76L297.09-21.76Q294.98-21.76 293.95-22.46Z" fill="#444"></path></g></g><style>text {
  font-size: 64px;
  font-family: Arial Black;
  dominant-baseline: central;
  text-anchor: middle;
}</style></svg>